#!OML:ASF I:\Actors\actors\Patient Classification 2\Patient 1\Session 1\actor1.ASF
:FULLY-SPECIFIED
:DEGREES
472
root -0.748732 18.579 6.7351 -2.42462 -5.43721 -3.31671
lowerback 7.25092 0.553239 3.83413
upperback -2.21297 1.2029 1.49215
thorax -6.34524 0.47204 -0.744844
lowerneck -3.06446 -17.5867 -12.7368
upperneck 20.0617 -24.2897 5.05493
head 8.9686 -12.0936 1.08423
rclavicle -1.46728e-014 4.57205e-015
rhumerus -60.3846 -18.6199 -76.9649
rradius 38.5635
rwrist -4.44515
rhand -24.5832 -44.5497
rfingers 7.12502
rthumb 1.9141 -74.5208
lclavicle -1.46728e-014 4.57205e-015
lhumerus -53.5583 12.7435 86.3883
lradius 42.1538
lwrist 17.5314
lhand -27.0568 -19.7604
lfingers 7.12502
lthumb -0.474943 10.2189
rfemur 0 0 0
rtibia 0
rfoot 0 0
rtoes 0
lfemur 1.47648 0.76952 -11.497
ltibia 24.4828
lfoot -24.2027 10.3005
ltoes -55.7931
473
root -0.703992 18.5635 6.72654 -2.44352 -5.68131 -4.12386
lowerback 6.91817 0.603059 3.57362
upperback -1.91557 1.22317 1.60733
thorax -5.84672 0.505353 -0.475875
lowerneck -4.18412 -16.8461 -12.209
upperneck 21.0966 -23.147 4.56265
head 9.28735 -11.5197 0.90159
rclavicle -1.6319e-014 -2.38542e-015
rhumerus -60.0596 -18.5752 -77.0695
rradius 38.5935
rwrist -5.36102
rhand -24.5624 -44.7213
rfingers 7.12502
rthumb 1.93416 -74.6922
lclavicle -1.6319e-014 -2.38542e-015
lhumerus -53.0286 13.0738 86.4825
lradius 42.0627
lwrist 17.2683
lhand -27.0811 -19.9372
lfingers 7.12502
lthumb -0.498429 10.042
rfemur 0 0 0
rtibia 0
rfoot 0 0
rtoes 0
lfemur 1.80223 -0.170975 -11.0384
ltibia 24.2193
lfoot -25.3259 10.9701
ltoes -55.532
474
root -0.659556 18.56 6.72174 -2.41246 -5.94582 -4.93499
lowerback 7.21843 0.750321 3.59506
upperback -2.16462 1.44036 1.50451
thorax -6.27101 0.600287 -0.626808
lowerneck -4.74394 -16.1624 -11.8042
upperneck 22.4203 -22.1774 4.09813
head 9.66035 -11.0546 0.75313
rclavicle -1.72011e-014 2.93207e-015
rhumerus -60.7002 -18.719 -76.9695
rradius 38.6452
rwrist -6.18627
rhand -24.5016 -45.0509
rfingers 7.12502
rthumb 1.99292 -75.0213
lclavicle -1.72011e-014 2.93207e-015
lhumerus -53.3318 12.7476 86.42
lradius 42.1091
lwrist 17.6199
lhand -27.0535 -19.9944
lfingers 7.12502
lthumb -0.471761 9.98486
rfemur 0 0 0
rtibia 0
rfoot 0 0
rtoes 0
lfemur 2.10762 -1.34308 -10.6517
ltibia 23.9511
lfoot -26.2637 12.012
ltoes -55.3426
475
root -0.618339 18.5686 6.72184 -2.2935 -6.24189 -5.66747
lowerback 6.85615 0.913748 3.26295
upperback -2.08125 1.60877 1.53931
thorax -5.97838 0.702155 -0.41788
lowerneck -5.57802 -15.524 -11.4265
upperneck 23.4319 -21.2407 3.80236
head 10.0112 -10.5851 0.642826
rclavicle -6.58474e-016 1.55052e-014
rhumerus -60.649 -18.7646 -76.8771
rradius 38.4742
rwrist -6.56676
rhand -24.1632 -45.3296
rfingers 7.12502
rthumb 2.31973 -75.2967
lclavicle -6.58474e-016 1.55052e-014
lhumerus -53.0776 12.5856 86.6626
lradius 42.1771
lwrist 18.4998
lhand -27.0499 -19.9521
lfingers 7.12502
lthumb -0.468269 10.0271
rfemur 0 0 0
rtibia 0
rfoot 0 0
rtoes 0
lfemur 2.3632 -2.81581 -10.4175
ltibia 23.6789
lfoot -27.1937 13.3422
ltoes -54.9177
476
root -0.582752 18.5835 6.72355 -2.15674 -6.54875 -6.24388
lowerback 6.43818 1.08895 2.82752
upperback -2.01448 1.78046 1.48869
thorax -5.67431 0.806784 -0.237414
lowerneck -6.61915 -14.9192 -10.9252
upperneck 24.6026 -20.3412 3.42258
head 10.4496 -10.1248 0.462126
rclavicle 2.39287e-014 3.49861e-014
rhumerus -60.5735 -18.7201 -76.9436
rradius 38.2457
rwrist -6.56763
rhand -23.7479 -45.5624
rfingers 7.12502
rthumb 2.72081 -75.5248
lclavicle 2.39287e-014 3.49861e-014
lhumerus -52.8277 12.4148 86.7856
lradius 42.2574
lwrist 19.5237
lhand -26.9309 -19.8587
lfingers 7.12502
lthumb -0.353358 10.1207
rfemur 0 0 0
rtibia 0
rfoot 0 0
rtoes 0
lfemur 2.59707 -4.2046 -10.3042
ltibia 23.4046
lfoot -28.1033 14.5363
ltoes -54.4267
